<svg xmlns="http://www.w3.org/2000/svg" viewBox="0 0 48 48" role="img" aria-label="Google">
  <!-- Simple Google "G" mark (official colors) -->
  <path fill="#EA4335" d="M24 9.5c3.08 0 5.84 1.19 7.99 3.14l5.39-5.39C34.02 4.05 29.29 2 24 2 14.73 2 6.73 7.27 2.99 14.87l6.45 5.01C11.1 13.7 16.05 9.5 24 9.5z"/>
  <path fill="#4285F4" d="M46.5 24.5c0-1.57-.14-3.07-.4-4.5H24v9h12.68c-.55 2.96-2.22 5.47-4.72 7.16l7.19 5.59C43.78 37.67 46.5 31.55 46.5 24.5z"/>
  <path fill="#FBBC05" d="M9.44 28.88A14.46 14.46 0 0 1 8.66 24c0-1.7.29-3.34.78-4.88l-6.45-5.01A23.98 23.98 0 0 0 0 24c0 3.86.92 7.5 2.99 10.89l6.45-5.01z"/>
  <path fill="#34A853" d="M24 46c5.29 0 10.02-1.74 13.37-4.73l-7.19-5.59c-1.99 1.34-4.53 2.13-6.18 2.13-7.95 0-12.9-4.2-14.56-10.38l-6.45 5.01C6.73 40.73 14.73 46 24 46z"/>
  <path fill="none" d="M0 0h48v48H0z"/>
</svg>

